<svg preserveAspectRatio="none" width="100%" height="100%" overflow="visible" style="display: block;" viewBox="0 0 16.005 18.02" fill="none" xmlns="http://www.w3.org/2000/svg">
<path id="Vector" d="M15.6925 8.72C15.3025 9.11 14.6725 9.11 14.2825 8.72L8.9925 3.43V17.02C8.9925 17.57 8.5425 18.02 7.9925 18.02C7.4425 18.02 6.9925 17.57 6.9925 17.02V3.42L1.7025 8.71C1.3125 9.1 0.6825 9.1 0.2925 8.71C-0.0975 8.32 -0.0975 7.69 0.2925 7.3L7.2925 0.3C7.3825 0.21 7.4925 0.13 7.6225 0.0799999C7.7425 0.0299999 7.8725 0 8.0025 0C8.1325 0 8.2625 0.0299999 8.3825 0.0799999C8.5025 0.13 8.6125 0.2 8.7125 0.3L15.7125 7.3C16.1025 7.69 16.1025 8.32 15.7125 8.71L15.6925 8.72Z" fill="var(--fill-0, #90A4AE)"/>
</svg>
