<svg preserveAspectRatio="none" width="100%" height="100%" overflow="visible" style="display: block;" viewBox="0 0 29.3333 24" fill="none" xmlns="http://www.w3.org/2000/svg">
<g id="Group 237972">
<g id="Vector">
<path d="M22.6 3C20.4133 1.06667 17.5867 0 14.6667 0C8.05333 0 2.66667 5.38667 2.66667 12H0L4 16L8 12H5.33333C5.33333 6.85333 9.52 2.66667 14.6667 2.66667C16.9467 2.66667 19.1333 3.49333 20.84 5C21.3867 5.48 22.2267 5.44 22.72 4.88C23.2133 4.33333 23.16 3.48 22.6 3Z" fill="var(--fill-0, #476AF5)"/>
<path d="M25.3333 8L21.3333 12H24C24 17.1467 19.8133 21.3333 14.6667 21.3333C12.3867 21.3333 10.2 20.5067 8.49333 19C7.94667 18.52 7.10667 18.56 6.61333 19.12C6.12 19.6667 6.17333 20.52 6.73333 21C8.92 22.9333 11.7467 24 14.6667 24C21.28 24 26.6667 18.6133 26.6667 12H29.3333L25.3333 8Z" fill="var(--fill-0, #476AF5)"/>
</g>
<g id="Vector_2">
<path d="M14.6667 12C16.2008 12 17.4445 10.7563 17.4445 9.22219C17.4445 7.68807 16.2008 6.44442 14.6667 6.44442C13.1326 6.44442 11.8889 7.68807 11.8889 9.22219C11.8889 10.7563 13.1326 12 14.6667 12Z" fill="var(--fill-0, #476AF5)"/>
<path d="M19.6667 15.4105C19.6667 17.1855 17.4278 17.5555 14.6667 17.5555C11.9056 17.5555 9.6667 17.1855 9.6667 15.4105C9.6667 13.6355 11.9056 12.5555 14.6667 12.5555C17.4278 12.5555 19.6667 13.6355 19.6667 15.4105Z" fill="var(--fill-0, #476AF5)"/>
</g>
<g id="User">
</g>
</g>
</svg>
