<svg preserveAspectRatio="none" width="100%" height="100%" overflow="visible" style="display: block;" viewBox="0 0 100 50.0417" fill="none" xmlns="http://www.w3.org/2000/svg">
<g id="Logo">
<path id="Vector" d="M99.1731 49.875V49.1042L98.8846 49.875H98.6538L98.3654 49.1042V49.875H98.0769V48.6042H98.4808L98.7692 49.3542L99.0385 48.6042H99.4423V49.875H99.1539M97.5769 48.8958V49.875H97.2692V48.8958H96.9423V48.6042H97.9231V48.8958H97.5962H97.5769ZM91.2885 49.875V43.8542H94.8077V45.125H92.5192V46.2708H94.5962V47.4583H92.5192V48.625H94.8077V49.8958H91.2692L91.2885 49.875ZM85.6731 43.8542H87L84.9615 49.875H83.6731L81.6346 43.8542H83L84.3462 48.1042L85.6731 43.8542ZM75.25 49.875V43.8542H76.5V49.875H75.25ZM68.4808 45.125V49.875H67.25V45.125H65.5385V43.8333H70.2115V45.125H68.5H68.4808ZM55.3846 46.875C55.3846 45 56.6923 43.7292 58.25 43.7292C59.9231 43.7292 60.6538 44.8958 60.8462 45.7708L59.6731 46.1667C59.5962 45.75 59.2308 45.0417 58.25 45.0417C57.5 45.0417 56.6538 45.625 56.6538 46.8958C56.6538 48.0208 57.4231 48.6875 58.25 48.6875C59.2115 48.6875 59.5962 48 59.7115 47.5625L60.9038 47.9375C60.7308 48.7708 59.9808 50.0417 58.25 50.0417C56.6538 50.0417 55.3654 48.7917 55.3654 46.9167L55.3846 46.875ZM47.4615 47.4167H48.8077L48.1346 45.3333L47.4423 47.4167H47.4615ZM49.1923 48.6458H47.0385L46.6346 49.875H45.3269L47.4231 43.8542H48.8654L50.9423 49.875H49.5962L49.1923 48.6458ZM38.4615 46.4792C38.9808 46.4792 39.25 46.1667 39.25 45.75C39.25 45.2917 38.9808 45.0208 38.4615 45.0208H37.7308V46.4792H38.4615ZM38.1731 47.625H37.7308V49.875H36.5V43.8542H38.7115C39.8077 43.8542 40.5192 44.6667 40.5192 45.75C40.5192 46.5625 40.0962 47.1875 39.4231 47.4583L40.5577 49.8958H39.1923L38.1923 47.6458L38.1731 47.625ZM27.3846 49.875V43.8542H30.9038V45.125H28.6154V46.2708H30.6923V47.4583H28.6154V48.625H30.9038V49.8958H27.3654L27.3846 49.875ZM20.3269 45.125V49.875H19.0962V45.125H17.3846V43.8333H22.0577V45.125H20.3462H20.3269ZM10.6731 49.875L8.38462 45.9167V49.875H7.15385V43.8542H8.65385L10.75 47.5208V43.8542H11.9808V49.875H10.6731ZM0.596154 49.875V43.8542H1.84615V49.875H0.596154ZM26.4423 17.75H22.4615V22.0625H26.4423V17.75ZM87.0577 0.270833H81.6154L79.1346 39.5208H82.7115L82.9615 34.1875H85.7115L85.9615 39.5208H89.5385L87.0577 0.270833ZM7.92308 0.270833H2.48077L0 39.5208H3.57692L3.82692 34.1875H6.57692L6.82692 39.5208H10.4038L7.92308 0.270833ZM90.8846 39.5208V4.27083H88.7692V0.270833H96.9423V4.25H94.8269V39.5208H90.8846ZM74.3077 5.54167C74.3077 4.64583 74.2115 4.3125 73.5385 4.3125H72.5577V17.7083H73.5385C74.2115 17.7083 74.3077 17.375 74.3077 16.4792V5.54167ZM78.3077 35.7708C78.3077 37.1667 78.3654 38.4583 78.7692 39.5208H74.6923C74.3846 38.8542 74.3269 37.5 74.3269 36.2083V23.0833C74.3269 22.125 74.1154 21.7292 73.4038 21.7292H72.5769V39.5H68.5962V0.270833H74.3462C77.5 0.270833 78.3269 1.33333 78.3269 5.04167V15.1875C78.3269 18 77.8077 19.2708 76.2115 19.7292C77.8269 20.1875 78.3269 21.4583 78.3269 24.3333V35.7708H78.3077ZM61.75 34.5417C61.75 35.4375 61.8462 35.7708 62.4808 35.7708H62.7308C63.4038 35.7708 63.5 35.4375 63.5 34.5417V24.2292H67.1731V35.0417C67.1731 38.75 66.4038 39.8125 63.2885 39.8125H61.6923C58.5769 39.8125 57.7692 38.75 57.7692 35.0417V4.77083C57.7692 1.0625 58.5962 0 61.6923 0H63.2885C66.3846 0 67.1731 1.0625 67.1731 4.77083V15.5833H63.5V5.27083C63.5 4.375 63.4038 4.04167 62.7308 4.04167H62.4808C61.8654 4.04167 61.75 4.375 61.75 5.27083V34.5417ZM52.4808 5.27083C52.4808 4.375 52.3846 4.04167 51.7115 4.04167H51.4615C50.8462 4.04167 50.7308 4.375 50.7308 5.27083V34.5417C50.7308 35.4375 50.8269 35.7708 51.4615 35.7708H51.7115C52.3846 35.7708 52.4808 35.4375 52.4808 34.5417V5.27083ZM46.7308 4.77083C46.7308 1.0625 47.5577 0 50.6538 0H52.4615C55.6154 0 56.3846 1.0625 56.3846 4.77083V35.0417C56.3846 38.75 55.6154 39.8125 52.4615 39.8125H50.6538C47.5577 39.8125 46.7308 38.75 46.7308 35.0417V4.77083ZM39.9615 39.5208V4.27083H37.8462V0.270833H46.0192V4.25H43.9038V39.5208H39.9808H39.9615ZM33.2308 26.9583C33.2308 24.5417 33.0192 23.4167 31.1538 20.5625C28.5192 16.3542 27.7885 14.7292 27.7885 10.1875V4.75C27.7885 1.0625 28.6154 0 31.7308 0H33.2308C36.3846 0 37.2115 1.0625 37.2115 4.77083V14.0833H33.4808V5.27083C33.4808 4.375 33.3846 4.04167 32.7115 4.04167H32.5C31.8846 4.04167 31.7692 4.375 31.7692 5.27083V10.7708C31.7692 13.2292 31.9231 14.3542 33.7885 17.2083C36.4231 21.3542 37.2115 22.9792 37.2115 27.5208V35.0417C37.2115 38.75 36.3846 39.8125 33.2308 39.8125H31.7308C28.6346 39.8125 27.8077 38.75 27.8077 35.0417V24.2292H31.5385V34.5417C31.5385 35.4375 31.6346 35.7708 32.3077 35.7708H32.4615C33.1346 35.7708 33.2308 35.4375 33.2308 34.5417V26.9792V26.9583ZM22.4615 24.2292H26.4423V39.5417H22.4615V24.2292ZM22.4615 0.270833H26.4423V15.5833H22.4615V0.270833ZM17.0769 5.54167C17.0769 4.64583 16.9808 4.3125 16.3077 4.3125H15.3269V17.7083H16.3077C16.9808 17.7083 17.0769 17.375 17.0769 16.4792V5.54167ZM21.0577 35.7708C21.0577 37.1667 21.1154 38.4583 21.5192 39.5208H17.4231C17.1154 38.8542 17.0577 37.5 17.0577 36.2083V23.0833C17.0577 22.125 16.8462 21.7292 16.1346 21.7292H15.3077V39.5H11.3269V0.270833H17.0769C20.2308 0.270833 21.0577 1.33333 21.0577 5.04167V15.1875C21.0577 18 20.5385 19.2708 18.9423 19.7292C20.5385 20.1875 21.0577 21.4583 21.0577 24.3333V35.7708Z" fill="var(--fill-0, black)"/>
</g>
</svg>
