<svg preserveAspectRatio="none" width="100%" height="100%" overflow="visible" style="display: block;" viewBox="0 0 52 24" fill="none" xmlns="http://www.w3.org/2000/svg">
<g id="Logo" clip-path="url(#clip0_175_14211)">
<path id="Vector" d="M51.57 23.94V23.57L51.42 23.94H51.3L51.15 23.57V23.94H51V23.33H51.21L51.36 23.69L51.5 23.33H51.71V23.94H51.56M50.74 23.47V23.94H50.58V23.47H50.41V23.33H50.92V23.47H50.75H50.74ZM47.47 23.94V21.05H49.3V21.66H48.11V22.21H49.19V22.78H48.11V23.34H49.3V23.95H47.46L47.47 23.94ZM44.55 21.05H45.24L44.18 23.94H43.51L42.45 21.05H43.16L43.86 23.09L44.55 21.05ZM39.13 23.94V21.05H39.78V23.94H39.13ZM35.61 21.66V23.94H34.97V21.66H34.08V21.04H36.51V21.66H35.62H35.61ZM28.8 22.5C28.8 21.6 29.48 20.99 30.29 20.99C31.16 20.99 31.54 21.55 31.64 21.97L31.03 22.16C30.99 21.96 30.8 21.62 30.29 21.62C29.9 21.62 29.46 21.9 29.46 22.51C29.46 23.05 29.86 23.37 30.29 23.37C30.79 23.37 30.99 23.04 31.05 22.83L31.67 23.01C31.58 23.41 31.19 24.02 30.29 24.02C29.46 24.02 28.79 23.42 28.79 22.52L28.8 22.5ZM24.68 22.76H25.38L25.03 21.76L24.67 22.76H24.68ZM25.58 23.35H24.46L24.25 23.94H23.57L24.66 21.05H25.41L26.49 23.94H25.79L25.58 23.35ZM20 22.31C20.27 22.31 20.41 22.16 20.41 21.96C20.41 21.74 20.27 21.61 20 21.61H19.62V22.31H20ZM19.85 22.86H19.62V23.94H18.98V21.05H20.13C20.7 21.05 21.07 21.44 21.07 21.96C21.07 22.35 20.85 22.65 20.5 22.78L21.09 23.95H20.38L19.86 22.87L19.85 22.86ZM14.24 23.94V21.05H16.07V21.66H14.88V22.21H15.96V22.78H14.88V23.34H16.07V23.95H14.23L14.24 23.94ZM10.57 21.66V23.94H9.93V21.66H9.04V21.04H11.47V21.66H10.58H10.57ZM5.55 23.94L4.36 22.04V23.94H3.72V21.05H4.5L5.59 22.81V21.05H6.23V23.94H5.55ZM0.31 23.94V21.05H0.96V23.94H0.31ZM13.75 8.52H11.68V10.59H13.75V8.52ZM45.27 0.13H42.44L41.15 18.97H43.01L43.14 16.41H44.57L44.7 18.97H46.56L45.27 0.13ZM4.12 0.13H1.29L0 18.97H1.86L1.99 16.41H3.42L3.55 18.97H5.41L4.12 0.13ZM47.26 18.97V2.05H46.16V0.13H50.41V2.04H49.31V18.97H47.26ZM38.64 2.66C38.64 2.23 38.59 2.07 38.24 2.07H37.73V8.5H38.24C38.59 8.5 38.64 8.34 38.64 7.91V2.66ZM40.72 17.17C40.72 17.84 40.75 18.46 40.96 18.97H38.84C38.68 18.65 38.65 18 38.65 17.38V11.08C38.65 10.62 38.54 10.43 38.17 10.43H37.74V18.96H35.67V0.13H38.66C40.3 0.13 40.73 0.64 40.73 2.42V7.29C40.73 8.64 40.46 9.25 39.63 9.47C40.47 9.69 40.73 10.3 40.73 11.68V17.17H40.72ZM32.11 16.58C32.11 17.01 32.16 17.17 32.49 17.17H32.62C32.97 17.17 33.02 17.01 33.02 16.58V11.63H34.93V16.82C34.93 18.6 34.53 19.11 32.91 19.11H32.08C30.46 19.11 30.04 18.6 30.04 16.82V2.29C30.04 0.51 30.47 0 32.08 0H32.91C34.52 0 34.93 0.51 34.93 2.29V7.48H33.02V2.53C33.02 2.1 32.97 1.94 32.62 1.94H32.49C32.17 1.94 32.11 2.1 32.11 2.53V16.58ZM27.29 2.53C27.29 2.1 27.24 1.94 26.89 1.94H26.76C26.44 1.94 26.38 2.1 26.38 2.53V16.58C26.38 17.01 26.43 17.17 26.76 17.17H26.89C27.24 17.17 27.29 17.01 27.29 16.58V2.53ZM24.3 2.29C24.3 0.51 24.73 0 26.34 0H27.28C28.92 0 29.32 0.51 29.32 2.29V16.82C29.32 18.6 28.92 19.11 27.28 19.11H26.34C24.73 19.11 24.3 18.6 24.3 16.82V2.29ZM20.78 18.97V2.05H19.68V0.13H23.93V2.04H22.83V18.97H20.79H20.78ZM17.28 12.94C17.28 11.78 17.17 11.24 16.2 9.87C14.83 7.85 14.45 7.07 14.45 4.89V2.28C14.45 0.51 14.88 0 16.5 0H17.28C18.92 0 19.35 0.51 19.35 2.29V6.76H17.41V2.53C17.41 2.1 17.36 1.94 17.01 1.94H16.9C16.58 1.94 16.52 2.1 16.52 2.53V5.17C16.52 6.35 16.6 6.89 17.57 8.26C18.94 10.25 19.35 11.03 19.35 13.21V16.82C19.35 18.6 18.92 19.11 17.28 19.11H16.5C14.89 19.11 14.46 18.6 14.46 16.82V11.63H16.4V16.58C16.4 17.01 16.45 17.17 16.8 17.17H16.88C17.23 17.17 17.28 17.01 17.28 16.58V12.95V12.94ZM11.68 11.63H13.75V18.98H11.68V11.63ZM11.68 0.13H13.75V7.48H11.68V0.13ZM8.88 2.66C8.88 2.23 8.83 2.07 8.48 2.07H7.97V8.5H8.48C8.83 8.5 8.88 8.34 8.88 7.91V2.66ZM10.95 17.17C10.95 17.84 10.98 18.46 11.19 18.97H9.06C8.9 18.65 8.87 18 8.87 17.38V11.08C8.87 10.62 8.76 10.43 8.39 10.43H7.96V18.96H5.89V0.13H8.88C10.52 0.13 10.95 0.64 10.95 2.42V7.29C10.95 8.64 10.68 9.25 9.85 9.47C10.68 9.69 10.95 10.3 10.95 11.68V17.17Z" fill="var(--fill-0, white)"/>
</g>
<defs>
<clipPath id="clip0_175_14211">
<rect width="52" height="24" fill="white"/>
</clipPath>
</defs>
</svg>
